<mxfile host="Electron" modified="2025-06-06T10:21:16.946Z" agent="Mozilla/5.0 (Windows NT 10.0; Win64; x64) AppleWebKit/537.36 (KHTML, like Gecko) draw.io/22.1.16 Chrome/120.0.6099.109 Electron/28.1.0 Safari/537.36" etag="FvBs1QXx5Nl9ourl8-Jj" version="22.1.16" type="device">
  <diagram name="Page-1" id="WX9Fi93PVbbkLYspEQky">
    <mxGraphModel dx="1050" dy="621" grid="1" gridSize="10" guides="1" tooltips="1" connect="1" arrows="1" fold="1" page="1" pageScale="1" pageWidth="850" pageHeight="1100" math="0" shadow="0">
      <root>
        <mxCell id="0" />
        <mxCell id="1" parent="0" />
        <mxCell id="G3A8EbT_yrCunka67mrO-8" style="rounded=0;orthogonalLoop=1;jettySize=auto;html=1;entryX=0;entryY=0;entryDx=0;entryDy=0;fillColor=#f8cecc;strokeColor=#b85450;" edge="1" parent="1" source="G3A8EbT_yrCunka67mrO-2" target="G3A8EbT_yrCunka67mrO-4">
          <mxGeometry relative="1" as="geometry" />
        </mxCell>
        <mxCell id="G3A8EbT_yrCunka67mrO-2" value="Quản trị viên" style="shape=umlActor;verticalLabelPosition=bottom;verticalAlign=top;html=1;outlineConnect=0;fillColor=#f8cecc;strokeColor=#b85450;" vertex="1" parent="1">
          <mxGeometry x="160" y="370" width="30" height="60" as="geometry" />
        </mxCell>
        <mxCell id="G3A8EbT_yrCunka67mrO-9" style="rounded=0;orthogonalLoop=1;jettySize=auto;html=1;entryX=0;entryY=1;entryDx=0;entryDy=0;fillColor=#dae8fc;strokeColor=#6c8ebf;" edge="1" parent="1" source="G3A8EbT_yrCunka67mrO-3" target="G3A8EbT_yrCunka67mrO-4">
          <mxGeometry relative="1" as="geometry" />
        </mxCell>
        <mxCell id="G3A8EbT_yrCunka67mrO-3" value="Giáo viên" style="shape=umlActor;verticalLabelPosition=bottom;verticalAlign=top;html=1;outlineConnect=0;fillColor=#dae8fc;strokeColor=#6c8ebf;" vertex="1" parent="1">
          <mxGeometry x="160" y="490" width="30" height="60" as="geometry" />
        </mxCell>
        <mxCell id="G3A8EbT_yrCunka67mrO-6" style="rounded=0;orthogonalLoop=1;jettySize=auto;html=1;entryX=0;entryY=0.5;entryDx=0;entryDy=0;dashed=1;" edge="1" parent="1" source="G3A8EbT_yrCunka67mrO-4" target="G3A8EbT_yrCunka67mrO-5">
          <mxGeometry relative="1" as="geometry" />
        </mxCell>
        <mxCell id="G3A8EbT_yrCunka67mrO-12" style="rounded=0;orthogonalLoop=1;jettySize=auto;html=1;exitX=1;exitY=1;exitDx=0;exitDy=0;dashed=1;" edge="1" parent="1" source="G3A8EbT_yrCunka67mrO-4" target="G3A8EbT_yrCunka67mrO-10">
          <mxGeometry relative="1" as="geometry" />
        </mxCell>
        <mxCell id="G3A8EbT_yrCunka67mrO-4" value="Đăng nhập" style="ellipse;whiteSpace=wrap;html=1;fillColor=#ffe6cc;strokeColor=#d79b00;" vertex="1" parent="1">
          <mxGeometry x="270" y="450" width="115.81" height="50" as="geometry" />
        </mxCell>
        <mxCell id="G3A8EbT_yrCunka67mrO-5" value="Đổi mật khẩu" style="ellipse;whiteSpace=wrap;html=1;fillColor=#ffe6cc;strokeColor=#d79b00;" vertex="1" parent="1">
          <mxGeometry x="490" y="400" width="115.81" height="50" as="geometry" />
        </mxCell>
        <mxCell id="G3A8EbT_yrCunka67mrO-7" value="&amp;lt;&amp;lt;extend&amp;gt;&amp;gt;" style="text;html=1;align=center;verticalAlign=middle;resizable=0;points=[];autosize=1;strokeColor=none;fillColor=none;rotation=-15;" vertex="1" parent="1">
          <mxGeometry x="381.81" y="421" width="90" height="30" as="geometry" />
        </mxCell>
        <mxCell id="G3A8EbT_yrCunka67mrO-10" value="Đăng xuất" style="ellipse;whiteSpace=wrap;html=1;fillColor=#ffe6cc;strokeColor=#d79b00;" vertex="1" parent="1">
          <mxGeometry x="490" y="500" width="115.81" height="50" as="geometry" />
        </mxCell>
        <mxCell id="G3A8EbT_yrCunka67mrO-13" value="&amp;lt;&amp;lt;extend&amp;gt;&amp;gt;" style="text;html=1;align=center;verticalAlign=middle;resizable=0;points=[];autosize=1;strokeColor=none;fillColor=none;rotation=10;" vertex="1" parent="1">
          <mxGeometry x="388.81" y="480" width="90" height="30" as="geometry" />
        </mxCell>
      </root>
    </mxGraphModel>
  </diagram>
</mxfile>
